#N canvas 419 283 722 466 10;
#X obj 537 37 loadbang;
#X obj 537 63 delay 300;
#X msg 537 89 \; pd dsp 1 \;;
#X obj 282 178 f;
#X obj 317 178 + 1;
#X obj 282 211 % 2;
#X floatatom 282 241 5 0 0 0 - - -, f 5;
#X obj 328 34 tedium_input 4;
#X text 323 11 gate inputs #0-3:;
#X obj 176 52 tedium_input 23;
#X text 163 24 tact switches #0-2:;
#X obj 329 63 tedium_input 17;
#X obj 329 93 tedium_input 2;
#X obj 329 122 tedium_input 3;
#X obj 219 323 tedium_output 16;
#X obj 281 289 tedium_output 26;
#X obj 177 87 tedium_input 25;
#X obj 178 123 tedium_input 24;
#X connect 0 0 1 0;
#X connect 1 0 2 0;
#X connect 3 0 4 0;
#X connect 3 0 5 0;
#X connect 4 0 3 1;
#X connect 5 0 6 0;
#X connect 6 0 14 0;
#X connect 6 0 15 0;
#X connect 7 0 3 0;
#X connect 9 0 3 0;
#X connect 11 0 3 0;
#X connect 12 0 3 0;
#X connect 13 0 3 0;
#X connect 16 0 3 0;
#X connect 17 0 3 0;
