#N canvas 196 183 575 422 10;
#X obj 120 80 loadbang;
#X obj 120 106 delay 300;
#X msg 120 132 \; pd dsp 1 \;;
#X obj 282 145 metro 200;
#X obj 282 178 f;
#X obj 317 178 + 1;
#X msg 282 121 1;
#X obj 282 211 % 2;
#X floatatom 282 241 5 0 0 0 - - -, f 5;
#X obj 227 315 tedium_output 16;
#X obj 283 278 tedium_output 26;
#X connect 0 0 1 0;
#X connect 1 0 2 0;
#X connect 1 0 6 0;
#X connect 3 0 4 0;
#X connect 4 0 5 0;
#X connect 4 0 7 0;
#X connect 5 0 4 1;
#X connect 6 0 3 0;
#X connect 7 0 8 0;
#X connect 8 0 9 0;
#X connect 8 0 10 0;
