#N canvas 196 226 575 422 10;
#X obj 67 32 loadbang;
#X obj 67 58 delay 300;
#X msg 67 84 \; pd dsp 1 \;;
#X obj 202 75 metro 200;
#X obj 202 108 f;
#X obj 237 108 + 1;
#X msg 202 51 1;
#X obj 202 141 % 2;
#X floatatom 202 171 5 0 0 0 - - -;
#X obj 304 212 print;
#X obj 186 235 tt_gpio 0 0;
#X connect 0 0 1 0;
#X connect 1 0 2 0;
#X connect 1 0 6 0;
#X connect 3 0 4 0;
#X connect 4 0 5 0;
#X connect 4 0 7 0;
#X connect 5 0 4 1;
#X connect 6 0 3 0;
#X connect 7 0 8 0;
#X connect 8 0 9 0;
#X connect 8 0 10 1;
#X connect 8 0 10 2;
